<svg xmlns="http://www.w3.org/2000/svg" viewBox="0 0 960 960" role="img" aria-labelledby="title desc">
  <title id="title">Tala Mboka</title>
  <desc id="desc">Icône Tala Mboka avec repère de carte, route et couleurs de la RDC.</desc>
  <defs>
    <linearGradient id="pin" x1="350" x2="610" y1="150" y2="650" gradientUnits="userSpaceOnUse">
      <stop stop-color="#0b4f9f"/>
      <stop offset="1" stop-color="#062653"/>
    </linearGradient>
    <linearGradient id="green" x1="570" x2="800" y1="365" y2="600" gradientUnits="userSpaceOnUse">
      <stop stop-color="#6ab832"/>
      <stop offset="1" stop-color="#087b36"/>
    </linearGradient>
  </defs>
  <rect width="960" height="960" rx="120" fill="#ffffff"/>
  <g transform="translate(0 80) scale(1.04)" transform-origin="480 480">
    <path d="M214 482a292 292 0 0 1 274-292" fill="none" stroke="#0875d1" stroke-linecap="round" stroke-width="36"/>
    <path d="M540 190a292 292 0 0 1 186 112" fill="none" stroke="#f7b500" stroke-linecap="round" stroke-width="36"/>
    <path d="M780 350a292 292 0 0 1-24 236" fill="none" stroke="#dc1717" stroke-linecap="round" stroke-width="36"/>
    <path d="M268 578c-3-42 0-93 28-133 26-38 74-62 121-56 23-73 126-102 188-51 45 36 54 101 27 151 47 5 91 35 108 80" fill="#dff6ff"/>
    <path d="M222 552h506" stroke="#0a3768" stroke-width="48" stroke-linecap="round"/>
    <path d="M308 552c45 74 111 116 182 116 75 0 137-40 182-116" fill="#062653"/>
    <path d="M468 650l22-98 22 98" fill="#ffffff"/>
    <path d="M304 548h120c-24-35-58-68-104-92-12 28-17 61-16 92Z" fill="#102b4e"/>
    <path d="M312 528h92M330 500h58M350 471h28" stroke="#ffffff" stroke-width="8" stroke-linecap="round"/>
    <path d="M664 548c-6-34-29-63-61-75 9-37-20-75-59-75-32 0-58 25-61 56-33 3-60 29-64 62" fill="url(#green)"/>
    <path d="M586 550v-92" stroke="#7a461d" stroke-width="20" stroke-linecap="round"/>
    <path d="M532 494c21-42 68-49 91-10 28-16 64 0 72 31 26-2 47 14 54 35" fill="#2f922d"/>
    <path d="M480 646s-112-137-112-245c0-79 50-151 112-151s112 72 112 151c0 108-112 245-112 245Z" fill="url(#pin)"/>
    <circle cx="480" cy="364" r="86" fill="#ffffff" stroke="#072b5c" stroke-width="24"/>
    <path d="M436 367c18-31 56-47 92-36 17 5 29 15 38 29-18 47-62 78-112 78-20 0-39-5-56-14 3-21 15-42 38-57Z" fill="#0b6fd3"/>
    <path d="M424 418l132-80" stroke="#f7d117" stroke-width="28"/>
    <path d="M432 430l132-80" stroke="#dc1717" stroke-width="18"/>
    <path d="m426 335 14 28 31 4-22 22 6 31-29-15-28 15 5-31-22-22 31-4 14-28Z" fill="#f7d117"/>
  </g>
</svg>
